<?xml version="1.0" encoding="utf-8"?>
<!-- Generator: Adobe Illustrator 23.0.4, SVG Export Plug-In . SVG Version: 6.00 Build 0)  -->
<svg version="1.1" id="Layer_1" xmlns="http://www.w3.org/2000/svg" xmlns:xlink="http://www.w3.org/1999/xlink" x="0px" y="0px"
	 viewBox="0 0 150 37.1" style="enable-background:new 0 0 150 37.1;" xml:space="preserve">
<style type="text/css">
	.st0{fill:#231F20;}
</style>
<g>
	<path class="st0" d="M92.9,20.6c0,3.3-1.5,3.3-2.3,3.3c-0.7,0-2.3,0-2.3-3.3v-9.2h-3.8v9.8c0,3.8,2.5,6.4,6.1,6.4
		c3.6,0,6.1-2.6,6.1-6.4v-9.8h-3.8V20.6z"/>
	<path class="st0" d="M130.4,11c-4.7,0-8.5,3.8-8.5,8.5c0,4.7,3.7,8.5,8.5,8.5c4.8,0,8.5-3.7,8.5-8.5C138.9,14.8,135.1,11,130.4,11z
		 M130.4,24.1c-2.5,0-4.6-2.1-4.6-4.6c0-2.6,2-4.6,4.6-4.6c2.6,0,4.6,2,4.6,4.6C135,22,133,24.1,130.4,24.1z"/>
	<path class="st0" d="M22.7,8.8l-8.5,18.7h4.3l1.6-3.6h5.2l1.6,3.6h4.3L22.7,8.8z M21.1,20.7l1.6-3.9l1.6,3.9H21.1z"/>
	<path class="st0" d="M41.2,11.5H35v15.7h3.9v-4.5H41c3.9,0,6.3-2.2,6.3-5.6v0C47.3,13.6,45,11.5,41.2,11.5z M43.3,17.2
		c0,1.3-0.9,2.1-2.4,2.1h-2V15h2C42.5,15,43.3,15.8,43.3,17.2L43.3,17.2z"/>
	<path class="st0" d="M57.4,11.5h-6.2v15.7h3.9v-4.5h2.1c3.9,0,6.3-2.2,6.3-5.6v0C63.4,13.6,61.1,11.5,57.4,11.5z M59.5,17.2
		c0,1.3-0.9,2.1-2.4,2.1h-2V15h2C58.6,15,59.5,15.8,59.5,17.2L59.5,17.2z"/>
	<path class="st0" d="M75,16.5c-3.1-0.8-3.7-1.2-3.7-2.2v-0.1c0-0.9,0.8-1.4,2.2-1.4c1.4,0,2.9,0.6,4.6,1.7l0.1,0.1l2.2-3.2
		l-0.1-0.1c-1.9-1.5-4.2-2.3-6.7-2.3c-3.8,0-6.4,2.3-6.4,5.5v0.1c0,3.8,2.6,4.7,6,5.6c3,0.8,3.5,1.3,3.5,2.1v0.1
		c0,1-0.9,1.5-2.4,1.5c-1.8,0-3.5-0.7-5.2-2.1l-0.1-0.1l-2.5,3l0.1,0.1c2.1,1.9,4.8,2.9,7.7,2.9c4.1,0,6.7-2.2,6.7-5.7V22
		C80.8,18.7,78.5,17.4,75,16.5z"/>
	<path class="st0" d="M109.7,28.1l-4.7-8l-1.4,7.4h-3.4l3.5-16.5l6.2,10.4l5.9-10.4l3.5,16.5h-3.6l-1.4-7.3L109.7,28.1z"/>
</g>
</svg>
