<svg xmlns="http://www.w3.org/2000/svg" xmlns:xlink="http://www.w3.org/1999/xlink" xmlns:serif="http://www.serif.com/" version="1.1" xml:space="preserve" style="fill-rule:evenodd;clip-rule:evenodd;stroke-linejoin:round;stroke-miterlimit:2;" viewBox="369.66 40.25 607.62 833.68"><g id="final"><path d="M399.506,475.247l3.994,7.901c5.538,10.709 11.798,21.194 18.742,31.402l0.047,-0c1.768,2.677 3.629,5.308 5.533,7.938c0.591,0.502 1.275,1.139 2.002,1.862c0.136,0.136 0.314,0.272 0.45,0.454c1.275,1.229 2.724,2.814 4.403,4.858c1.725,1.997 3.718,4.403 6.035,7.31l6.442,8.435c1.271,1.773 2.588,3.54 3.902,5.402c1.772,2.541 3.591,5.176 5.401,7.896l5.491,8.529c0.956,1.543 1.955,3.137 2.953,4.769c1.586,2.677 3.264,5.444 4.896,8.35l6.949,12.797c-0,0.046 0.042,0.046 0.042,0.089c2.134,4.041 4.084,8.036 5.941,11.891l3.995,8.576c0.548,1.224 1.092,2.452 1.59,3.676c0.182,0.365 0.318,0.773 0.497,1.135c1.139,2.635 2.227,5.265 3.268,7.896c0.047,0.136 0.093,0.272 0.183,0.412l4.356,11.389c1.275,3.536 2.363,6.851 3.404,9.979c0.047,0.14 0.093,0.229 0.136,0.365l2.499,8.173c0.131,0.361 0.225,0.769 0.314,1.135l3.404,12.111l2.499,10.531l2.537,12.886l1.454,8.308c0.998,6.898 1.814,13.34 2.269,19.375c0.043,0.323 0.043,0.638 0.094,0.952l316.971,-0l4.398,-28.635c0.094,-0.451 0.141,-0.905 0.23,-1.356c0.591,-3.723 1.228,-7.577 1.993,-11.53c0.047,-0.544 0.187,-1.087 0.276,-1.682l1.675,-8.436l3,-13.119c0.047,-0.039 0.047,-0.085 0.047,-0.132l2.358,-9.078l3.902,-12.796l3.404,-9.711l3.174,-8.487l0,-0.046l3.311,-7.896c0.544,-1.229 1.139,-2.495 1.683,-3.723c1.815,-4.127 3.812,-8.262 5.899,-12.252c0.093,-0.136 0.136,-0.319 0.225,-0.455l3.723,-6.898l-0,-0.046c0.136,-0.315 0.318,-0.587 0.497,-0.91c0.82,-1.542 1.679,-3.081 2.588,-4.577c1.589,-2.724 3.268,-5.452 5.04,-8.261l5.444,-8.304c1.224,-1.773 2.448,-3.541 3.719,-5.266c1.819,-2.541 3.676,-5.036 5.673,-7.624l6.626,-8.304c0.909,-1.046 1.768,-2.044 2.63,-3.039c4.361,-5.129 9.035,-10.255 14.02,-15.252c0.183,-0.226 0.366,-0.404 0.595,-0.634c2.181,-2.949 4.31,-5.992 6.354,-9.03c8.576,-12.571 16.2,-25.729 22.732,-39.303l-547.909,0Z" style="fill:url(#_Linear1);fill-rule:nonzero;"/><g><path d="M418.608,179.377c-56.815,89.216 -64.665,198.401 -20.964,292.058c0.591,1.271 1.177,2.546 1.857,3.812l547.91,0c0.637,-1.266 1.271,-2.583 1.865,-3.858c43.697,-93.611 35.89,-202.754 -20.879,-291.83c-56.361,-88.536 -149.295,-139.312 -254.852,-139.312c-105.684,-0 -198.622,50.729 -254.937,139.13Z" style="fill:url(#_Linear2);fill-rule:nonzero;"/></g><path d="M772.156,809.773l-197.309,0c-16.957,0 -16.795,20.268 -0,20.268l197.309,-0c16.745,-0 16.961,-20.268 0,-20.268" style="fill:#1a1a1a;"/><path d="M733.317,853.662l-119.33,-0c-16.243,-0 -16.09,20.263 -0,20.263l119.33,-0c16.089,-0 16.242,-20.263 -0,-20.263" style="fill:#1a1a1a;"/><path d="M516.112,735.415l0,0.051c0.761,1.976 2.232,3.701 4.412,4.917c2.027,1.215 4.662,1.925 7.909,1.925l290.082,-0c3.345,-0 6.035,-0.761 8.062,-1.981l0.047,0c0.255,-0.148 0.459,-0.301 0.71,-0.45c-0,-0 0.055,-0 0.055,-0.055c0.812,-1.267 2.027,-4.152 3.497,-10.744l0,-0.055c-1.47,-3.85 -5.58,-6.991 -12.371,-6.991l-290.082,-0c-7.251,-0 -11.509,3.697 -12.627,7.905l0.306,5.478Z" style="fill:#1a1a1a;"/><path d="M818.524,765.931l-290.104,-0c-17.182,-0 -17.347,20.267 0,20.267l290.104,-0c17.348,-0 17.182,-20.267 0,-20.267" style="fill:#1a1a1a;"/><path d="M932.024,464.492l-0,0.051c-0.914,2.078 -1.925,4.156 -2.992,6.183c-0.761,1.522 -1.521,3.043 -2.329,4.513c0,0.102 -0.055,0.204 -0.102,0.306c-0.765,1.42 -1.521,2.839 -2.333,4.259c-4.207,7.807 -8.873,15.46 -13.939,23.063c-1.373,2.027 -2.741,4.008 -4.212,6.035c-0.862,1.266 -1.772,2.533 -2.686,3.753c-2.584,2.834 -5.07,5.728 -7.45,8.618c-2.435,2.737 -4.717,5.474 -6.948,8.313c-3.345,4.258 -6.642,8.567 -9.783,12.928c-0.455,0.607 -0.863,1.215 -1.266,1.827c-1.573,2.129 -3.094,4.305 -4.565,6.485c-0.204,0.255 -0.357,0.51 -0.505,0.761c-2.737,3.957 -5.427,8.011 -7.909,12.116c-1.726,2.788 -3.4,5.529 -5.019,8.317c-0.761,1.317 -1.573,2.686 -2.333,4.003c-1.369,2.533 -2.788,5.019 -4.055,7.552c-0.255,0.408 -0.459,0.863 -0.709,1.271c-1.471,2.737 -2.89,5.525 -4.263,8.313c-1.772,3.599 -3.498,7.148 -5.117,10.798c-0.812,1.726 -1.623,3.447 -2.333,5.172c-0.353,0.812 -0.71,1.624 -1.016,2.482c-0.858,1.93 -1.67,3.855 -2.431,5.831c-1.674,4.054 -3.246,8.215 -4.713,12.32c-1.066,2.788 -1.98,5.525 -2.894,8.313c-0.352,0.913 -0.607,1.776 -0.858,2.686c-0.812,2.435 -1.624,4.917 -2.333,7.403c-0.306,0.964 -0.608,1.878 -0.863,2.839c-0.812,2.741 -1.572,5.524 -2.282,8.312c-1.165,4.258 -2.231,8.572 -3.141,12.881c-0.658,2.788 -1.266,5.521 -1.776,8.313c-0.863,4.258 -1.624,8.567 -2.384,12.877c-0.404,2.788 -0.808,5.525 -1.216,8.312c-0.909,6.745 -1.619,13.536 -2.18,20.331l-279.131,0c-0.557,-6.948 -1.322,-13.688 -2.231,-20.331c-0.408,-2.787 -0.812,-5.575 -1.266,-8.312c-0.663,-4.361 -1.471,-8.67 -2.334,-12.877c-0.556,-2.792 -1.164,-5.576 -1.776,-8.313c-1.011,-4.364 -2.027,-8.623 -3.192,-12.83c-0.709,-2.839 -1.521,-5.576 -2.333,-8.312c-0.301,-1.012 -0.556,-1.977 -0.858,-2.992c-0.765,-2.431 -1.526,-4.866 -2.287,-7.199c-0.301,-0.863 -0.607,-1.777 -0.858,-2.635c-0.965,-2.839 -1.929,-5.576 -2.89,-8.313c-1.572,-4.309 -3.145,-8.466 -4.815,-12.524c-0.761,-1.874 -1.521,-3.702 -2.282,-5.474l-0,-0.051c-0.357,-0.965 -0.761,-1.823 -1.169,-2.788l-2.333,-5.121l0,-0.051c-1.619,-3.65 -3.293,-7.25 -5.015,-10.747c-1.423,-2.839 -2.839,-5.627 -4.262,-8.313c-0.2,-0.408 -0.404,-0.812 -0.655,-1.22c-1.372,-2.635 -2.792,-5.168 -4.16,-7.654c-0.761,-1.317 -1.471,-2.635 -2.18,-3.952c-1.671,-2.89 -3.345,-5.627 -4.968,-8.317c-2.635,-4.258 -5.223,-8.312 -7.705,-12.065c-0.204,-0.255 -0.357,-0.557 -0.557,-0.812c-1.47,-2.282 -2.992,-4.458 -4.462,-6.485c-0.455,-0.663 -0.859,-1.22 -1.318,-1.827c-3.446,-4.866 -6.693,-9.176 -9.63,-12.826c-2.537,-3.243 -4.866,-6.035 -6.846,-8.317c-4.866,-5.678 -7.858,-8.563 -7.858,-8.563c-0.961,-1.322 -1.925,-2.589 -2.839,-3.906c-1.925,-2.788 -3.854,-5.576 -5.678,-8.313c-4.564,-6.897 -8.72,-13.79 -12.524,-20.785c-0.863,-1.522 -1.619,-3.043 -2.431,-4.565l-0.051,0c-0.76,-1.521 -1.521,-3.042 -2.282,-4.513c-1.113,-2.231 -2.18,-4.407 -3.242,-6.689c-84.461,-180.175 42.884,-405.218 258.906,-405.218c215.252,-0 343.617,224.585 258.447,405.673m-3.6,-284.915c-56.373,-88.562 -149.299,-139.313 -254.847,-139.313c-105.705,0 -198.632,50.696 -254.954,139.113c-56.828,89.224 -64.686,198.427 -20.99,292.059c0.608,1.271 1.22,2.537 1.879,3.803l4.003,7.909c5.525,10.697 11.763,21.139 18.707,31.381l0,0.051l0.051,-0c1.777,2.635 3.651,5.274 5.529,7.909c0.604,0.505 1.318,1.164 2.028,1.874c0.148,0.153 0.301,0.255 0.454,0.459c1.267,1.215 2.737,2.788 4.412,4.866c1.721,1.976 3.697,4.36 6.034,7.301c1.318,1.67 2.733,3.549 4.254,5.525c0.659,0.96 1.42,1.925 2.181,2.89c1.266,1.776 2.588,3.548 3.905,5.422c1.772,2.537 3.6,5.172 5.372,7.909c1.067,1.573 2.129,3.247 3.298,4.968c0.709,1.118 1.466,2.333 2.231,3.549c0.909,1.521 1.925,3.145 2.936,4.768c1.573,2.686 3.247,5.423 4.866,8.313c0.863,1.521 1.726,3.043 2.538,4.513c0.255,0.455 0.505,0.96 0.76,1.419c0.506,0.859 0.961,1.722 1.42,2.584c0.76,1.471 1.521,2.839 2.231,4.31c-0,0.051 0.047,0.051 0.047,0.102c2.133,4.003 4.109,8.01 5.983,11.861c0.612,1.317 1.271,2.635 1.828,3.956c0.76,1.573 1.47,3.039 2.129,4.611c0.557,1.271 1.113,2.486 1.623,3.702c0.149,0.357 0.302,0.761 0.506,1.118c1.118,2.634 2.18,5.269 3.243,7.908c0.051,0.149 0.102,0.251 0.204,0.404c0.357,1.016 0.76,2.027 1.164,3.094c0.459,1.062 0.863,2.18 1.322,3.243l0.709,1.929c0.404,1.063 0.761,2.125 1.114,3.141c1.322,3.548 2.384,6.846 3.447,9.987c0.051,0.102 0.051,0.204 0.102,0.357c0.305,0.807 0.556,1.67 0.811,2.482c0.608,1.925 1.165,3.799 1.726,5.677c0.102,0.357 0.204,0.765 0.301,1.118c0.153,0.506 0.306,1.011 0.455,1.517c1.016,3.451 1.981,6.995 2.941,10.599c0.204,0.761 0.357,1.522 0.561,2.231c0.506,2.078 1.011,4.208 1.466,6.337c0.153,0.658 0.306,1.317 0.459,1.976c0.914,4.105 1.624,7.807 2.231,11.1c0.153,0.608 0.251,1.22 0.302,1.777c0.459,2.333 0.863,4.666 1.22,6.893c0.097,0.506 0.153,0.96 0.25,1.419c1.016,6.898 1.828,13.336 2.283,19.371c0.051,0.353 0.051,0.654 0.102,0.96c0.255,2.482 0.403,5.019 0.556,7.756l0,0.149c0.153,1.776 0.255,3.549 0.306,5.482l0,0.047c0.757,1.976 2.231,3.697 4.412,4.917c0.148,0.051 0.352,0.051 0.505,0.051c0.302,0 17.135,0.102 36.145,0.102c18.86,0 32.953,-0.102 41.928,-0.255l9.227,0.102l-0,0.153l166.893,0l0,-0.102l9.07,0c15.72,0 36.705,-0.051 42.285,-0.098l0.047,0c0.255,-0.153 0.459,-0.31 0.714,-0.459c-0,0 0.046,0 0.046,-0.051c0.812,-1.266 2.028,-4.156 3.502,-10.747l0,-0.051c0.404,-1.977 0.859,-4.31 1.318,-6.996c0.102,-0.505 0.148,-1.015 0.25,-1.474c0.659,-3.948 1.267,-8.207 1.981,-12.873l0.909,-5.984l0.353,-2.532c0.259,-1.981 0.561,-3.906 0.914,-5.78c0.102,-0.459 0.102,-0.914 0.204,-1.369c0.607,-3.701 1.215,-7.556 2.027,-11.508c-0,-0.557 0.153,-1.063 0.255,-1.675c0.404,-2.129 0.863,-4.407 1.317,-6.638c0.153,-0.612 0.204,-1.219 0.357,-1.827c0.761,-3.6 1.569,-7.301 2.533,-11.054c0.153,-0.659 0.306,-1.368 0.455,-2.023c0.055,-0.055 0.055,-0.106 0.055,-0.153c0.506,-2.031 1.063,-4.058 1.568,-6.136c0.204,-0.808 0.404,-1.624 0.659,-2.431c0.051,-0.153 0.102,-0.306 0.153,-0.51c0.812,-2.784 1.776,-6.333 2.992,-9.987c0.251,-0.961 0.557,-1.875 0.914,-2.788c0.556,-1.874 1.215,-3.702 1.823,-5.525c0.353,-1.016 0.761,-2.027 1.117,-3.043c0.098,-0.353 0.251,-0.761 0.455,-1.164c0.91,-2.639 1.925,-5.325 3.039,-8.113c0.055,-0.153 0.055,-0.251 0.102,-0.353l-0,-0.051c0.408,-0.965 0.812,-1.976 1.271,-2.941c0.607,-1.674 1.317,-3.344 2.078,-4.968c0.505,-1.215 1.113,-2.486 1.67,-3.701c1.827,-4.157 3.803,-8.262 5.882,-12.269c0.102,-0.153 0.153,-0.302 0.255,-0.455c0.607,-1.267 1.317,-2.486 1.976,-3.753c0.556,-1.062 1.113,-2.129 1.725,-3.145l0,-0.046c0.149,-0.306 0.302,-0.612 0.506,-0.914c0.812,-1.521 1.674,-3.094 2.584,-4.564c1.572,-2.737 3.247,-5.474 5.019,-8.262c1.066,-1.623 2.133,-3.349 3.298,-5.019c0.705,-1.067 1.419,-2.231 2.18,-3.298c1.215,-1.772 2.431,-3.548 3.697,-5.274c1.827,-2.533 3.702,-5.015 5.682,-7.603c1.466,-1.925 2.988,-3.803 4.56,-5.775c0.71,-0.867 1.368,-1.675 2.078,-2.537c0.914,-1.067 1.777,-2.027 2.635,-3.043c4.365,-5.121 9.027,-10.242 13.995,-15.257c0.204,-0.204 0.352,-0.408 0.607,-0.612c2.181,-2.941 4.31,-5.979 6.341,-9.022c8.563,-12.571 16.217,-25.754 22.758,-39.341c0.612,-1.266 1.27,-2.588 1.827,-3.85c43.701,-93.585 35.89,-202.737 -20.837,-291.812" style="fill:#1a1a1a;"/><rect x="408.94" y="470.7" width="523.086" height="9.078" style="fill:#1a1a1a;"/><path d="M682.751,432.857c64.18,0 -64.185,0 -0,0m183.57,42.383l-4.662,-3.599c-0.408,-0.306 -0.812,-0.608 -1.22,-0.914c-32.09,-24.181 -82.582,-40.301 -139.767,-45.32c-2.992,-0.255 -6.035,-0.51 -9.125,-0.71c-7.811,-0.51 -15.715,-0.811 -23.726,-0.862c-1.675,-0.051 -3.396,-0.051 -5.07,-0.051c-1.369,-0 -2.686,-0 -4.059,0.051c-70.767,0.607 -135.305,18.049 -173.634,46.892l-1.215,0.914l-4.662,3.599l-5.882,4.56l378.904,0l-5.882,-4.56Z" style="fill:#f8e7aa;fill-rule:nonzero;"/><path d="M682.751,432.857c64.18,0 123.189,13.99 161.62,37.87l-323.189,-0c38.376,-23.88 97.384,-37.87 161.569,-37.87m183.57,42.383l-4.662,-3.599c-0.408,-0.306 -0.812,-0.608 -1.22,-0.914c-32.09,-24.181 -82.582,-40.301 -139.767,-45.32c-2.992,-0.255 -6.035,-0.51 -9.125,-0.71c-7.811,-0.51 -15.715,-0.811 -23.726,-0.862c-1.675,-0.051 -3.396,-0.051 -5.07,-0.051c-1.369,-0 -2.686,-0 -4.059,0.051c-70.767,0.607 -135.305,18.049 -173.634,46.892l-1.215,0.914l-4.662,3.599l-5.882,4.56l378.904,0l-5.882,-4.56Z" style="fill:#1a1a1a;fill-rule:nonzero;"/><path d="M711.711,428.516l-6.379,-175.032l4.535,-0.362l4.538,0.2l6.375,174.833l-9.069,0.361Z" style="fill:#1a1a1a;fill-rule:nonzero;"/><path d="M687.266,428.833l-9.022,-0.994l0.748,-6.783l6.086,-167.897l9.073,-0.038l-0,0.2l-6.111,168.398l-0.774,7.114Z" style="fill:#1a1a1a;fill-rule:nonzero;"/><g><path d="M696.183,250.404l-5.372,-1.471c-7.352,-1.976 -48.214,0.153 -59.314,6.082c-6.54,3.446 -12.524,7.909 -17.845,13.183c-19.77,19.77 -26.973,48.617 -19.315,77.159l2.078,7.552l88.26,-88.213l9.43,-9.426l4.258,-4.258l-2.18,-0.608Z" style="fill:#00fff8;fill-rule:nonzero;"/><path d="M785.867,268.198c-5.321,-5.274 -11.356,-9.737 -17.896,-13.183c-11.101,-5.929 -23.727,-9.073 -36.957,-9.073c-7.505,-0 -15.006,1.015 -22.358,2.991l-2.537,0.706l-5.015,1.373l13.685,13.684l88.264,88.213l2.078,-7.552c7.705,-28.542 0.506,-57.338 -19.264,-77.159" style="fill:#00fff8;fill-rule:nonzero;"/><path d="M833.825,248.223c-14.751,-25.656 -40.254,-40.913 -68.188,-40.913c-8.568,0 -16.88,1.419 -24.738,4.156c-14.246,4.917 -26.919,14.042 -36.604,26.566c-1.062,1.317 -2.027,2.686 -2.941,4.054c-0.454,0.608 -0.909,1.271 -1.266,1.879c-0.91,1.368 -1.772,2.736 -2.584,4.156c-0,0.051 -0.051,0.051 -0.051,0.102l-1.266,2.18l-2.028,3.6l-0.055,0.051l-0.557,0.96l144.179,0l-3.901,-6.791Z" style="fill:#00fff8;fill-rule:nonzero;"/><path d="M701.205,194.233c-3.753,-10.191 -9.635,-19.519 -17.539,-27.428c-19.775,-19.77 -48.622,-26.974 -77.164,-19.265l-7.603,2.028l61.495,61.443l40.505,40.505l0.607,-2.282l1.322,-4.964l0.098,-0.306c0.506,-1.98 1.016,-3.952 1.373,-5.933c0.96,-4.866 1.517,-9.732 1.619,-14.551l-0,-0.455c-0.047,-1.317 -0.047,-2.635 -0,-3.901c-0.251,-8.619 -1.823,-17.037 -4.713,-24.891" style="fill:#00fff8;fill-rule:nonzero;"/><path d="M796.26,146.523c-28.542,-7.705 -57.39,-0.506 -77.16,19.269c-8.159,8.159 -14.194,17.845 -17.896,28.439c-2.788,7.909 -4.258,16.375 -4.36,24.993c0.051,1.118 0.051,2.278 0.051,3.447c0.051,5.223 0.71,10.493 1.925,15.818c0.255,1.47 0.612,2.992 1.016,4.462l0.251,1.011l1.419,5.274l0.357,1.267l101.948,-101.953l-7.551,-2.027Z" style="fill:#00fff8;fill-rule:nonzero;"/><path d="M708.199,253.293l-2.079,-3.651l-0.807,-1.419c-0.153,-0.255 -0.306,-0.51 -0.459,-0.71c-0.608,-1.118 -1.266,-2.18 -2.027,-3.247c-0.408,-0.76 -0.914,-1.47 -1.471,-2.18c-0.76,-1.215 -1.674,-2.431 -2.537,-3.595c-10.135,-13.183 -23.471,-22.664 -38.426,-27.479c-7.455,-2.436 -15.261,-3.702 -23.268,-3.702c-27.985,0 -53.437,15.257 -68.188,40.913l-3.906,6.791l144.183,0l-1.015,-1.721Z" style="fill:#00fff8;fill-rule:nonzero;"/></g><g><path d="M798.085,335.064l-79.14,-79.084c4.008,-0.608 8.015,-0.965 12.069,-0.965c18.555,-0 35.792,6.944 48.414,19.621c15.665,15.614 22.358,37.768 18.657,60.428m-12.218,-66.866c-5.321,-5.274 -11.356,-9.737 -17.896,-13.183c-11.101,-5.929 -23.727,-9.073 -36.957,-9.073c-7.505,-0 -15.006,1.015 -22.358,2.991l-2.537,0.706l-5.015,1.373l13.685,13.684l88.264,88.213l2.078,-7.552c7.705,-28.542 0.506,-57.338 -19.264,-77.159" style="fill:#1a1a1a;fill-rule:nonzero;"/><path d="M709.671,245.941c13.434,-18.657 33.863,-29.558 55.966,-29.558c22.107,0 42.485,10.901 55.919,29.558l-111.885,-0Zm124.154,2.282c-14.751,-25.656 -40.254,-40.913 -68.188,-40.913c-8.568,0 -16.88,1.419 -24.738,4.156c-14.246,4.917 -26.919,14.042 -36.604,26.566c-1.062,1.317 -2.027,2.686 -2.941,4.054c-0.454,0.608 -0.909,1.271 -1.266,1.879c-0.91,1.368 -1.772,2.736 -2.584,4.156c-0,0.051 -0.051,0.051 -0.051,0.102l-1.266,2.18l-2.028,3.6l-0.055,0.051l-0.557,0.96l144.179,0l-3.901,-6.791Z" style="fill:#1a1a1a;fill-rule:nonzero;"/><path d="M616.744,154.587c22.711,-3.702 44.865,2.991 60.479,18.656c12.269,12.218 19.065,28.593 19.621,45.979c0.051,1.117 0.051,2.282 0.051,3.451c-0.051,3.646 -0.403,7.297 -1.015,10.998l-79.136,-79.084Zm84.461,39.646c-3.753,-10.191 -9.635,-19.519 -17.539,-27.428c-19.775,-19.77 -48.622,-26.974 -77.164,-19.265l-7.603,2.028l61.495,61.443l40.505,40.505l0.607,-2.282l1.322,-4.964l0.098,-0.306c0.506,-1.98 1.016,-3.952 1.373,-5.933c0.96,-4.866 1.517,-9.732 1.619,-14.551l-0,-0.455c-0.047,-1.317 -0.047,-2.635 -0,-3.901c-0.251,-8.619 -1.823,-17.037 -4.713,-24.891" style="fill:#1a1a1a;fill-rule:nonzero;"/><path d="M706.882,232.658c-0.506,-3.094 -0.812,-6.133 -0.965,-9.175l0,-0.459c-0.046,-1.318 -0.046,-2.635 0,-3.902c0.306,-17.743 7.097,-34.423 19.571,-46.892c12.826,-12.826 30.012,-19.672 48.316,-19.672c4.003,-0 8.108,0.357 12.163,1.015l-79.085,79.085Zm89.378,-86.135c-28.542,-7.705 -57.39,-0.506 -77.16,19.269c-8.159,8.159 -14.194,17.845 -17.896,28.439c-2.788,7.909 -4.258,16.375 -4.36,24.993c0.051,1.118 0.051,2.278 0.051,3.447c0.051,5.223 0.71,10.493 1.925,15.818c0.255,1.47 0.612,2.992 1.016,4.462l0.251,1.011l1.419,5.274l0.357,1.267l101.948,-101.953l-7.551,-2.027Z" style="fill:#1a1a1a;fill-rule:nonzero;"/><path d="M581.206,245.941c13.383,-18.657 33.816,-29.558 55.919,-29.558c22.103,0 42.532,10.901 55.915,29.558l-111.834,-0Zm126.993,7.352l-2.079,-3.651l-0.807,-1.419c-0.153,-0.255 -0.306,-0.51 -0.459,-0.71c-0.608,-1.118 -1.266,-2.18 -2.027,-3.247c-0.408,-0.76 -0.914,-1.47 -1.471,-2.18c-0.76,-1.215 -1.674,-2.431 -2.537,-3.595c-10.135,-13.183 -23.471,-22.664 -38.426,-27.479c-7.455,-2.436 -15.261,-3.702 -23.268,-3.702c-27.985,0 -53.437,15.257 -68.188,40.913l-3.906,6.791l144.183,0l-1.015,-1.721Z" style="fill:#1a1a1a;fill-rule:nonzero;"/><path d="M601.434,335.064c-3.702,-22.66 2.992,-44.814 18.606,-60.428c12.672,-12.677 29.859,-19.621 48.413,-19.621c4.059,-0 8.062,0.357 12.065,0.965l-79.084,79.084Zm94.749,-84.66l-5.372,-1.471c-7.352,-1.976 -14.853,-2.991 -22.358,-2.991c-13.229,-0 -25.856,3.144 -36.956,9.073c-6.54,3.446 -12.524,7.909 -17.845,13.183c-19.77,19.77 -26.973,48.617 -19.315,77.159l2.078,7.552l88.26,-88.213l9.43,-9.426l4.258,-4.258l-2.18,-0.608Z" style="fill:#1a1a1a;fill-rule:nonzero;"/></g><rect x="684.476" y="389.321" width="30.522" height="10.14"/><rect x="685.453" y="362.658" width="28.571" height="9.078"/><rect x="686.456" y="335.467" width="26.561" height="9.078"/><rect x="687.434" y="308.303" width="24.611" height="9.078"/><rect x="688.437" y="281.108" width="22.605" height="9.078"/><path d="M478.582,330.872c-3.999,-8.002 -8.678,-12.473 -13.91,-13.289c-8.244,-1.292 -16.153,6.672 -16.234,6.753l-6.528,-6.303c0.451,-0.467 11.152,-11.406 24.097,-9.43c8.325,1.275 15.286,7.399 20.696,18.206l-8.121,4.063Z" style="fill:#1a1a1a;fill-rule:nonzero;"/><path d="M485.048,330.872l-8.117,-4.063c5.406,-10.807 12.367,-16.931 20.692,-18.206c12.932,-1.963 23.646,8.963 24.092,9.43l-6.527,6.303c-0.077,-0.077 -7.96,-8.041 -16.23,-6.753c-5.232,0.816 -9.911,5.287 -13.91,13.289" style="fill:#1a1a1a;fill-rule:nonzero;"/><path d="M454.773,377.456c-2.457,-4.913 -5.223,-7.637 -8.228,-8.096c-4.713,-0.705 -9.486,4.033 -9.537,4.084l-6.536,-6.298c0.812,-0.841 8.177,-8.176 17.446,-6.757c6.081,0.931 11.121,5.304 14.972,13.009l-8.117,4.058Z" style="fill:#1a1a1a;fill-rule:nonzero;"/><path d="M461.784,377.456l-8.117,-4.058c3.85,-7.705 8.891,-12.078 14.972,-13.009c9.269,-1.398 16.638,5.916 17.446,6.757l-6.52,6.315c-1.326,-1.351 -5.631,-4.734 -9.587,-4.092c-2.988,0.472 -5.746,3.191 -8.194,8.087" style="fill:#1a1a1a;fill-rule:nonzero;"/><path d="M502.846,361.279c-2.448,-4.896 -5.206,-7.616 -8.193,-8.088c-3.97,-0.659 -8.262,2.741 -9.584,4.093l-6.523,-6.316c0.812,-0.841 8.185,-8.155 17.445,-6.752c6.082,0.926 11.122,5.303 14.972,13.004l-8.117,4.059Z" style="fill:#1a1a1a;fill-rule:nonzero;"/><path d="M509.858,361.279l-8.117,-4.059c3.85,-7.701 8.89,-12.078 14.972,-13.004c9.264,-1.411 16.638,5.911 17.445,6.752l-6.523,6.316c-1.322,-1.352 -5.627,-4.752 -9.583,-4.093c-2.988,0.472 -5.746,3.192 -8.194,8.088" style="fill:#1a1a1a;fill-rule:nonzero;"/><path d="M511.332,225.67c-3.659,-0.491 -9.12,-7.508 -11.812,-10.421c-1.724,-1.898 -3.122,-4.249 -4.144,-7.021c-1.077,-2.845 -1.616,-5.932 -1.643,-9.128c-0.027,-2.948 1.158,-12.355 0.754,-12.952c-0.862,-1.192 -4.37,-4.798 -5.663,-4.198c-3.767,1.86 -8.22,7.629 -10.722,11.875c-1.615,2.736 -4.272,14.981 -3.949,18.598c0.322,3.684 9.422,15.802 11.105,18.452c2.604,4.103 23.829,13.344 25.685,12.276c0.838,-0.483 20.744,-7.076 22.736,-11.042" style="fill:#fff;fill-rule:nonzero;stroke:#fefffe;stroke-width:3.13px;"/><path d="M523.159,236.055c-3.293,1.772 -6.842,2.941 -10.492,3.395c-4.161,0.561 -8.317,0.255 -12.372,-0.858c-3.956,-1.067 -7.551,-2.941 -10.798,-5.478c-3.145,-2.482 -5.78,-5.474 -7.705,-8.823c-2.129,-3.748 -3.447,-7.705 -3.906,-11.759c-0.454,-4.054 -0.148,-8.113 0.965,-12.116c1.011,-3.702 2.737,-7.148 5.07,-10.242c2.078,-2.737 4.513,-5.019 7.25,-6.893c-0.561,2.686 -0.812,5.474 -0.761,8.312c0.051,5.984 1.416,11.713 4.004,17.085c2.537,5.121 5.932,9.532 10.191,13.08c6.387,5.325 13.688,8.364 22.307,9.278c0.909,0.102 1.925,0.153 2.988,0.204c-1.977,1.874 -4.203,3.446 -6.741,4.815m19.112,-12.014c-0.659,-0.965 -2.533,-3.196 -6.337,-2.436c-2.788,0.51 -5.677,0.659 -7.96,0.408l-0.102,0c-6.893,-0.709 -12.417,-2.991 -17.487,-7.199c-3.247,-2.741 -5.882,-6.136 -7.807,-10.14c-2.028,-4.109 -3.043,-8.567 -3.094,-13.183c-0.051,-4.258 0.761,-8.363 2.384,-12.214c1.466,-3.348 -0.204,-5.63 -0.965,-6.493c-1.623,-1.721 -4.054,-2.231 -6.489,-1.364c-7.097,2.685 -13.03,7.148 -17.743,13.28c-3.043,3.953 -5.223,8.466 -6.592,13.332c-1.368,5.07 -1.823,10.293 -1.215,15.516c0.608,5.321 2.282,10.442 5.07,15.257c2.533,4.36 5.882,8.215 9.936,11.457c4.207,3.298 8.874,5.678 13.99,7.097c3.549,0.965 7.149,1.42 10.748,1.42c1.726,-0 3.498,-0.102 5.223,-0.302c4.764,-0.612 9.328,-2.129 13.638,-4.411c5.932,-3.196 10.849,-7.705 14.602,-13.434c1.976,-2.992 0.96,-5.376 0.2,-6.591" style="fill:#1a1a1a;fill-rule:nonzero;"/><g><path d="M776.949,618.594c-9.616,-0.017 -18.82,-1.195 -27.532,-3.237c-7.248,-1.698 -14.24,-3.711 -21.332,-5.587c-6.892,-1.817 -13.984,-3.326 -21.624,-3.959c-9.985,-0.829 -19.065,0.497 -27.163,3.628c-3.976,1.533 -7.695,3.237 -11.537,4.859c-3.128,1.314 -6.59,1.722 -10.287,0.834c-3.798,-0.905 -5.685,-2.586 -5.763,-4.764c-0.067,-1.385 0.804,-2.675 2.781,-3.628c6.254,-3.03 12.777,-5.883 20.249,-8.061c9.829,-2.864 20.306,-3.982 31.475,-3.367c10.755,0.586 20.685,2.509 30.245,5.06c6.746,1.793 13.381,3.699 20.25,5.344c5.808,1.391 11.984,2.243 18.417,2.409c8.936,0.237 16.754,-1.361 23.802,-4.125c3.585,-1.403 7.036,-2.912 10.443,-4.433c4.4,-1.959 10.052,-1.87 13.816,0.278c3.563,2.024 3.496,5.315 -0.525,7.268c-8.645,4.196 -17.781,8.031 -29.095,10.085c-5.384,0.982 -10.935,1.42 -16.62,1.396" style="fill:#1a1a1a;fill-rule:nonzero;"/><path d="M899.586,537.184c-9.617,-0.017 -18.82,-1.195 -27.532,-3.237c-7.248,-1.698 -14.24,-3.711 -21.333,-5.587c-6.891,-1.817 -13.983,-3.326 -21.623,-3.959c-9.985,-0.829 -19.065,0.497 -27.163,3.628c-3.976,1.533 -7.695,3.237 -11.538,4.859c-3.127,1.314 -6.589,1.722 -10.286,0.834c-3.798,-0.905 -5.685,-2.586 -5.763,-4.764c-0.067,-1.385 0.804,-2.675 2.781,-3.628c6.254,-3.03 12.777,-5.883 20.249,-8.061c9.829,-2.864 20.305,-3.983 31.474,-3.367c10.756,0.586 20.685,2.509 30.246,5.06c6.746,1.793 13.381,3.699 20.25,5.344c5.807,1.391 11.984,2.243 18.417,2.409c8.936,0.237 7.506,10.493 1.821,10.469" style="fill:#1a1a1a;fill-rule:nonzero;"/><path d="M510.057,621.258c-9.617,-0.018 1.357,7.975 -7.355,5.934c-7.249,-1.699 -19.752,-20.457 -12.883,-18.812c5.807,1.391 11.984,2.243 18.417,2.409c8.936,0.237 16.754,-1.361 23.801,-4.125c3.586,-1.403 7.037,-2.912 10.444,-4.433c4.4,-1.959 10.052,-1.87 13.816,0.278c3.563,2.024 3.496,5.315 -0.525,7.268c-8.645,4.196 -17.781,8.031 -29.096,10.084c-5.383,0.983 -10.934,1.421 -16.619,1.397" style="fill:#1a1a1a;fill-rule:nonzero;"/><path d="M671.649,696.275c-9.423,-0.017 -18.44,-1.173 -26.977,-3.177c-7.102,-1.667 -13.953,-3.641 -20.903,-5.482c-6.741,-1.783 -13.702,-3.264 -21.187,-3.886c-9.784,-0.813 -18.682,0.488 -26.616,3.561c-3.885,1.504 -7.53,3.176 -11.305,4.768c-3.054,1.289 -6.457,1.69 -10.08,0.818c-3.71,-0.888 -5.57,-2.537 -5.647,-4.675c-0.054,-1.359 0.788,-2.625 2.725,-3.56c6.14,-2.973 12.52,-5.773 19.842,-7.91c9.63,-2.811 19.896,-3.908 30.84,-3.304c10.539,0.575 20.268,2.462 29.636,4.965c6.61,1.76 13.111,3.63 19.842,5.245c5.691,1.364 11.753,2.201 18.057,2.363c8.744,0.233 16.405,-1.335 23.311,-4.048c3.513,-1.376 6.895,-2.857 10.232,-4.35c4.312,-1.922 9.861,-1.835 13.549,0.273c3.48,1.987 3.415,5.216 -0.525,7.132c-8.471,4.118 -17.423,7.881 -28.509,9.896c-5.275,0.964 -10.703,1.394 -16.285,1.371" style="fill:#1a1a1a;fill-rule:nonzero;"/><path d="M626.258,537.714c-9.522,-0.016 -18.623,-1.071 -27.26,-2.9c-7.178,-1.521 -14.101,-3.324 -21.123,-5.004c-6.812,-1.628 -13.846,-2.979 -21.41,-3.546c-9.887,-0.743 -18.878,0.445 -26.895,3.249c-3.926,1.373 -7.609,2.9 -11.413,4.352c-3.097,1.177 -6.536,1.543 -10.197,0.747c-3.748,-0.811 -5.617,-2.316 -5.706,-4.267c-0.055,-1.24 0.807,-2.396 2.754,-3.249c6.204,-2.714 12.651,-5.269 20.061,-7.22c9.72,-2.566 20.094,-3.568 31.153,-3.016c10.649,0.525 20.481,2.247 29.947,4.532c6.68,1.606 13.249,3.313 20.05,4.787c5.751,1.245 11.877,2.009 18.247,2.157c8.836,0.212 16.578,-1.219 23.567,-3.695c3.539,-1.256 6.956,-2.608 10.329,-3.97c4.357,-1.755 9.964,-1.675 13.691,0.249c3.517,1.813 3.45,4.76 -0.531,6.51c-8.56,3.758 -17.606,7.193 -28.808,9.032c-5.331,0.88 -10.816,1.273 -16.456,1.252" style="fill:#1a1a1a;fill-rule:nonzero;"/></g><g id="Layer2"><ellipse cx="481.835" cy="329.019" rx="3.596" ry="4.552" style="fill:#1b1b1b;"/><ellipse cx="458.265" cy="375.324" rx="3.966" ry="4.552" style="fill:#1b1b1b;"/><ellipse cx="506.397" cy="360.128" rx="3.684" ry="4.462" style="fill:#1b1b1b;"/></g></g><defs><linearGradient id="_Linear1" x1="0" y1="0" x2="1" y2="0" gradientUnits="userSpaceOnUse" gradientTransform="matrix(0.937986,187.65,-187.65,0.937986,715.9,500.26)"><stop offset="0" style="stop-color:#00fff8;stop-opacity:1"/><stop offset="0.26" style="stop-color:#39c4f7;stop-opacity:1"/><stop offset="0.5" style="stop-color:#4eaef7;stop-opacity:1"/><stop offset="1" style="stop-color:#2549a8;stop-opacity:1"/></linearGradient><linearGradient id="_Linear2" x1="0" y1="0" x2="1" y2="0" gradientUnits="userSpaceOnUse" gradientTransform="matrix(3.01364,-482.196,482.196,3.01364,706.716,463.863)"><stop offset="0" style="stop-color:#fff;stop-opacity:1"/><stop offset="0.13" style="stop-color:#efccfe;stop-opacity:1"/><stop offset="0.25" style="stop-color:#e9bafd;stop-opacity:1"/><stop offset="0.57" style="stop-color:#db7fd6;stop-opacity:1"/><stop offset="1" style="stop-color:#be0081;stop-opacity:1"/></linearGradient></defs></svg>